<?xml version="1.0" encoding="UTF-8"?>
<!--Generator: Apple Native CoreSVG 175.5-->
<!DOCTYPE svg
PUBLIC "-//W3C//DTD SVG 1.1//EN"
       "http://www.w3.org/Graphics/SVG/1.1/DTD/svg11.dtd">
<svg version="1.1" xmlns="http://www.w3.org/2000/svg" xmlns:xlink="http://www.w3.org/1999/xlink" width="3300" height="2200">
 <!--glyph: "uni1001E5.medium", point size: 100.0, font version: "18.0d10e1", template writer version: "90"-->
 <style>.monochrome-0 {fill:#000000}

.multicolor-0:white {fill:#FFFFFF}

.SFSymbolsPreviewFFFFFF {fill:#FFFFFF;opacity:1.0}
</style>
 <g id="Notes">
  <rect height="2200" id="artboard" style="fill:white;opacity:1" width="3300" x="0" y="0"/>
  <line style="fill:none;stroke:black;opacity:1;stroke-width:0.5;" x1="263" x2="3036" y1="292" y2="292"/>
  <text style="stroke:none;fill:black;font-family:sans-serif;font-size:13;font-weight:bold;" transform="matrix(1 0 0 1 263 322)">Weight/Scale Variations</text>
  <text style="stroke:none;fill:black;font-family:sans-serif;font-size:13;text-anchor:middle;" transform="matrix(1 0 0 1 559.711 322)">Ultralight</text>
  <text style="stroke:none;fill:black;font-family:sans-serif;font-size:13;text-anchor:middle;" transform="matrix(1 0 0 1 856.422 322)">Thin</text>
  <text style="stroke:none;fill:black;font-family:sans-serif;font-size:13;text-anchor:middle;" transform="matrix(1 0 0 1 1153.13 322)">Light</text>
  <text style="stroke:none;fill:black;font-family:sans-serif;font-size:13;text-anchor:middle;" transform="matrix(1 0 0 1 1449.84 322)">Regular</text>
  <text style="stroke:none;fill:black;font-family:sans-serif;font-size:13;text-anchor:middle;" transform="matrix(1 0 0 1 1746.56 322)">Medium</text>
  <text style="stroke:none;fill:black;font-family:sans-serif;font-size:13;text-anchor:middle;" transform="matrix(1 0 0 1 2043.27 322)">Semibold</text>
  <text style="stroke:none;fill:black;font-family:sans-serif;font-size:13;text-anchor:middle;" transform="matrix(1 0 0 1 2339.98 322)">Bold</text>
  <text style="stroke:none;fill:black;font-family:sans-serif;font-size:13;text-anchor:middle;" transform="matrix(1 0 0 1 2636.69 322)">Heavy</text>
  <text style="stroke:none;fill:black;font-family:sans-serif;font-size:13;text-anchor:middle;" transform="matrix(1 0 0 1 2933.4 322)">Black</text>
  <line style="fill:none;stroke:black;opacity:1;stroke-width:0.5;" x1="263" x2="3036" y1="1903" y2="1903"/>
  <g transform="matrix(1 0 0 1 263 1933)">
   <path d="M9.24805 0.830078C13.5547 0.830078 17.1387-2.74414 17.1387-7.05078C17.1387-11.3574 13.5449-14.9316 9.23828-14.9316C4.94141-14.9316 1.36719-11.3574 1.36719-7.05078C1.36719-2.74414 4.95117 0.830078 9.24805 0.830078ZM9.24805-0.654297C5.70312-0.654297 2.87109-3.49609 2.87109-7.05078C2.87109-10.6055 5.69336-13.4473 9.23828-13.4473C12.793-13.4473 15.6445-10.6055 15.6445-7.05078C15.6445-3.49609 12.8027-0.654297 9.24805-0.654297ZM5.6543-7.05078C5.6543-6.62109 5.95703-6.32812 6.40625-6.32812L8.50586-6.32812L8.50586-4.20898C8.50586-3.76953 8.79883-3.4668 9.22852-3.4668C9.67773-3.4668 9.9707-3.76953 9.9707-4.20898L9.9707-6.32812L12.0898-6.32812C12.5293-6.32812 12.832-6.62109 12.832-7.05078C12.832-7.49023 12.5293-7.79297 12.0898-7.79297L9.9707-7.79297L9.9707-9.90234C9.9707-10.3516 9.67773-10.6543 9.22852-10.6543C8.79883-10.6543 8.50586-10.3516 8.50586-9.90234L8.50586-7.79297L6.40625-7.79297C5.95703-7.79297 5.6543-7.49023 5.6543-7.05078Z"/>
  </g>
  <g transform="matrix(1 0 0 1 281.867 1933)">
   <path d="M11.709 2.91016C17.1582 2.91016 21.6699-1.61133 21.6699-7.05078C21.6699-12.5 17.1484-17.0117 11.6992-17.0117C6.25977-17.0117 1.74805-12.5 1.74805-7.05078C1.74805-1.61133 6.26953 2.91016 11.709 2.91016ZM11.709 1.25C7.09961 1.25 3.41797-2.44141 3.41797-7.05078C3.41797-11.6602 7.08984-15.3516 11.6992-15.3516C16.3086-15.3516 20.0098-11.6602 20.0098-7.05078C20.0098-2.44141 16.3184 1.25 11.709 1.25ZM7.17773-7.05078C7.17773-6.57227 7.50977-6.25 8.00781-6.25L10.8789-6.25L10.8789-3.36914C10.8789-2.88086 11.2109-2.53906 11.6895-2.53906C12.1777-2.53906 12.5195-2.87109 12.5195-3.36914L12.5195-6.25L15.4004-6.25C15.8887-6.25 16.2305-6.57227 16.2305-7.05078C16.2305-7.53906 15.8887-7.88086 15.4004-7.88086L12.5195-7.88086L12.5195-10.752C12.5195-11.25 12.1777-11.5918 11.6895-11.5918C11.2109-11.5918 10.8789-11.25 10.8789-10.752L10.8789-7.88086L8.00781-7.88086C7.50977-7.88086 7.17773-7.53906 7.17773-7.05078Z"/>
  </g>
  <g transform="matrix(1 0 0 1 305.646 1933)">
   <path d="M14.9707 5.66406C21.9336 5.66406 27.6953-0.0976562 27.6953-7.05078C27.6953-14.0137 21.9238-19.7754 14.9609-19.7754C8.00781-19.7754 2.25586-14.0137 2.25586-7.05078C2.25586-0.0976562 8.01758 5.66406 14.9707 5.66406ZM14.9707 3.84766C8.93555 3.84766 4.08203-1.01562 4.08203-7.05078C4.08203-13.0957 8.92578-17.9492 14.9609-17.9492C21.0059-17.9492 25.8691-13.0957 25.8691-7.05078C25.8691-1.01562 21.0156 3.84766 14.9707 3.84766ZM9.19922-7.05078C9.19922-6.5332 9.57031-6.17188 10.1172-6.17188L14.0625-6.17188L14.0625-2.2168C14.0625-1.67969 14.4336-1.29883 14.9512-1.29883C15.4883-1.29883 15.8594-1.66992 15.8594-2.2168L15.8594-6.17188L19.8145-6.17188C20.3516-6.17188 20.7324-6.5332 20.7324-7.05078C20.7324-7.59766 20.3613-7.96875 19.8145-7.96875L15.8594-7.96875L15.8594-11.9141C15.8594-12.4609 15.4883-12.8418 14.9512-12.8418C14.4336-12.8418 14.0625-12.4609 14.0625-11.9141L14.0625-7.96875L10.1172-7.96875C9.57031-7.96875 9.19922-7.59766 9.19922-7.05078Z"/>
  </g>
  <text style="stroke:none;fill:black;font-family:sans-serif;font-size:13;font-weight:bold;" transform="matrix(1 0 0 1 263 1953)">Design Variations</text>
  <text style="stroke:none;fill:black;font-family:sans-serif;font-size:13;" transform="matrix(1 0 0 1 263 1971)">Symbols are supported in up to nine weights and three scales.</text>
  <text style="stroke:none;fill:black;font-family:sans-serif;font-size:13;" transform="matrix(1 0 0 1 263 1989)">For optimal layout with text and other symbols, vertically align</text>
  <text style="stroke:none;fill:black;font-family:sans-serif;font-size:13;" transform="matrix(1 0 0 1 263 2007)">symbols with the adjacent text.</text>
  <line style="fill:none;stroke:#00AEEF;stroke-width:0.5;opacity:1.0;" x1="776" x2="776" y1="1919" y2="1933"/>
  <g transform="matrix(1 0 0 1 776 1933)">
   <path d="M3.31055 0.15625C3.82812 0.15625 4.08203-0.0390625 4.26758-0.585938L5.52734-4.0332L11.2891-4.0332L12.5488-0.585938C12.7344-0.0390625 12.9883 0.15625 13.4961 0.15625C14.0137 0.15625 14.3457-0.15625 14.3457-0.644531C14.3457-0.810547 14.3164-0.966797 14.2383-1.17188L9.6582-13.3691C9.43359-13.9648 9.0332-14.2676 8.4082-14.2676C7.80273-14.2676 7.39258-13.9746 7.17773-13.3789L2.59766-1.16211C2.51953-0.957031 2.49023-0.800781 2.49023-0.634766C2.49023-0.146484 2.80273 0.15625 3.31055 0.15625ZM6.00586-5.51758L8.37891-12.0898L8.42773-12.0898L10.8008-5.51758Z"/>
  </g>
  <line style="fill:none;stroke:#00AEEF;stroke-width:0.5;opacity:1.0;" x1="793.197" x2="793.197" y1="1919" y2="1933"/>
  <text style="stroke:none;fill:black;font-family:sans-serif;font-size:13;font-weight:bold;" transform="matrix(1 0 0 1 776 1953)">Margins</text>
  <text style="stroke:none;fill:black;font-family:sans-serif;font-size:13;" transform="matrix(1 0 0 1 776 1971)">Leading and trailing margins on the left and right side of each symbol</text>
  <text style="stroke:none;fill:black;font-family:sans-serif;font-size:13;" transform="matrix(1 0 0 1 776 1989)">can be adjusted by modifying the x-location of the margin guidelines.</text>
  <text style="stroke:none;fill:black;font-family:sans-serif;font-size:13;" transform="matrix(1 0 0 1 776 2007)">Modifications are automatically applied proportionally to all</text>
  <text style="stroke:none;fill:black;font-family:sans-serif;font-size:13;" transform="matrix(1 0 0 1 776 2025)">scales and weights.</text>
  <g transform="matrix(1 0 0 1 1289 1933)">
   <path d="M2.8418 1.86523L4.54102 3.57422C5.40039 4.44336 6.38672 4.38477 7.31445 3.35938L18.0078-8.42773L17.041-9.4043L6.42578 2.27539C6.07422 2.67578 5.74219 2.77344 5.27344 2.30469L4.10156 1.14258C3.63281 0.683594 3.74023 0.341797 4.14062-0.0195312L15.6152-10.8203L14.6387-11.7871L3.04688-0.898438C2.06055 0.0195312 1.98242 0.996094 2.8418 1.86523ZM9.25781-16.3281C8.83789-15.918 8.80859-15.3418 9.04297-14.9512C9.27734-14.5898 9.73633-14.3555 10.3809-14.5215C11.8457-14.8633 13.3691-14.9219 14.7949-13.9844L14.209-12.5293C13.8672-11.6992 14.043-11.1133 14.5801-10.5664L16.875-8.25195C17.3633-7.76367 17.7734-7.74414 18.3398-7.8418L19.4043-8.03711L20.0684-7.36328L20.0293-6.80664C19.9902-6.30859 20.1172-5.92773 20.6055-5.44922L21.3672-4.70703C21.8457-4.22852 22.4609-4.19922 22.9297-4.66797L25.8398-7.58789C26.3086-8.05664 26.2891-8.65234 25.8105-9.13086L25.0391-9.89258C24.5605-10.3711 24.1895-10.5273 23.7109-10.4883L23.1348-10.4395L22.4902-11.0742L22.7344-12.1973C22.8613-12.7637 22.7051-13.2031 22.1191-13.7891L19.9219-15.9766C16.582-19.2969 12.1484-19.2188 9.25781-16.3281ZM10.752-15.957C13.1836-17.7344 16.4746-17.4316 18.7012-15.2051L21.1328-12.793C21.3672-12.5586 21.4062-12.373 21.3379-12.0312L21.0156-10.5469L22.5195-9.0625L23.5059-9.12109C23.7598-9.13086 23.8379-9.11133 24.0332-8.91602L24.6094-8.33984L22.168-5.89844L21.5918-6.47461C21.3965-6.66992 21.3672-6.74805 21.377-7.01172L21.4453-7.98828L19.9512-9.47266L18.4277-9.21875C18.1055-9.15039 17.959-9.17969 17.7148-9.41406L15.7129-11.416C15.459-11.6504 15.4297-11.8164 15.5859-12.1875L16.4648-14.2773C14.9023-15.7324 12.8711-16.3574 10.8398-15.7617C10.6836-15.7227 10.625-15.8496 10.752-15.957Z"/>
  </g>
  <text style="stroke:none;fill:black;font-family:sans-serif;font-size:13;font-weight:bold;" transform="matrix(1 0 0 1 1289 1953)">Exporting</text>
  <text style="stroke:none;fill:black;font-family:sans-serif;font-size:13;" transform="matrix(1 0 0 1 1289 1971)">Symbols should be outlined when exporting to ensure the</text>
  <text style="stroke:none;fill:black;font-family:sans-serif;font-size:13;" transform="matrix(1 0 0 1 1289 1989)">design is preserved when submitting to Xcode.</text>
  <text id="template-version" style="stroke:none;fill:black;font-family:sans-serif;font-size:13;text-anchor:end;" transform="matrix(1 0 0 1 3036 1933)">Template v.4.0</text>
  <text style="stroke:none;fill:black;font-family:sans-serif;font-size:13;text-anchor:end;" transform="matrix(1 0 0 1 3036 1951)">Requires Xcode 14 or greater</text>
  <text id="descriptive-name" style="stroke:none;fill:black;font-family:sans-serif;font-size:13;text-anchor:end;" transform="matrix(1 0 0 1 3036 1969)">Generated from snowflake</text>
  <text style="stroke:none;fill:black;font-family:sans-serif;font-size:13;text-anchor:end;" transform="matrix(1 0 0 1 3036 1987)">Typeset at 100 points</text>
  <text style="stroke:none;fill:black;font-family:sans-serif;font-size:13;" transform="matrix(1 0 0 1 263 726)">Small</text>
  <text style="stroke:none;fill:black;font-family:sans-serif;font-size:13;" transform="matrix(1 0 0 1 263 1156)">Medium</text>
  <text style="stroke:none;fill:black;font-family:sans-serif;font-size:13;" transform="matrix(1 0 0 1 263 1586)">Large</text>
 </g>
 <g id="Guides">
  <g id="H-reference" style="fill:#27AAE1;stroke:none;" transform="matrix(1 0 0 1 339 696)">
   <path d="M0.993654 0L3.63775 0L29.3281-67.1323L30.0303-67.1323L30.0303-70.459L28.1226-70.459ZM11.6885-24.4799L46.9815-24.4799L46.2315-26.7285L12.4385-26.7285ZM55.1196 0L57.7637 0L30.6382-70.459L29.4326-70.459L29.4326-67.1323Z"/>
  </g>
  <line id="Baseline-S" style="fill:none;stroke:#27AAE1;opacity:1;stroke-width:0.5;" x1="263" x2="3036" y1="696" y2="696"/>
  <line id="Capline-S" style="fill:none;stroke:#27AAE1;opacity:1;stroke-width:0.5;" x1="263" x2="3036" y1="625.541" y2="625.541"/>
  <g id="H-reference" style="fill:#27AAE1;stroke:none;" transform="matrix(1 0 0 1 339 1126)">
   <path d="M0.993654 0L3.63775 0L29.3281-67.1323L30.0303-67.1323L30.0303-70.459L28.1226-70.459ZM11.6885-24.4799L46.9815-24.4799L46.2315-26.7285L12.4385-26.7285ZM55.1196 0L57.7637 0L30.6382-70.459L29.4326-70.459L29.4326-67.1323Z"/>
  </g>
  <line id="Baseline-M" style="fill:none;stroke:#27AAE1;opacity:1;stroke-width:0.5;" x1="263" x2="3036" y1="1126" y2="1126"/>
  <line id="Capline-M" style="fill:none;stroke:#27AAE1;opacity:1;stroke-width:0.5;" x1="263" x2="3036" y1="1055.54" y2="1055.54"/>
  <g id="H-reference" style="fill:#27AAE1;stroke:none;" transform="matrix(1 0 0 1 339 1556)">
   <path d="M0.993654 0L3.63775 0L29.3281-67.1323L30.0303-67.1323L30.0303-70.459L28.1226-70.459ZM11.6885-24.4799L46.9815-24.4799L46.2315-26.7285L12.4385-26.7285ZM55.1196 0L57.7637 0L30.6382-70.459L29.4326-70.459L29.4326-67.1323Z"/>
  </g>
  <line id="Baseline-L" style="fill:none;stroke:#27AAE1;opacity:1;stroke-width:0.5;" x1="263" x2="3036" y1="1556" y2="1556"/>
  <line id="Capline-L" style="fill:none;stroke:#27AAE1;opacity:1;stroke-width:0.5;" x1="263" x2="3036" y1="1485.54" y2="1485.54"/>
  <line id="left-margin-Ultralight-S" style="fill:none;stroke:#00AEEF;stroke-width:0.5;opacity:1.0;" x1="520.531" x2="520.531" y1="600.785" y2="720.121"/>
  <line id="right-margin-Ultralight-S" style="fill:none;stroke:#00AEEF;stroke-width:0.5;opacity:1.0;" x1="598.891" x2="598.891" y1="600.785" y2="720.121"/>
  <line id="left-margin-Regular-S" style="fill:none;stroke:#00AEEF;stroke-width:0.5;opacity:1.0;" x1="1408.78" x2="1408.78" y1="600.785" y2="720.121"/>
  <line id="right-margin-Regular-S" style="fill:none;stroke:#00AEEF;stroke-width:0.5;opacity:1.0;" x1="1490.91" x2="1490.91" y1="600.785" y2="720.121"/>
  <line id="left-margin-Black-S" style="fill:none;stroke:#00AEEF;stroke-width:0.5;opacity:1.0;" x1="2889.58" x2="2889.58" y1="600.785" y2="720.121"/>
  <line id="right-margin-Black-S" style="fill:none;stroke:#00AEEF;stroke-width:0.5;opacity:1.0;" x1="2977.22" x2="2977.22" y1="600.785" y2="720.121"/>
 </g>
 <g id="Symbols">
  <g id="Black-S" transform="matrix(1 0 0 1 2889.58 696)">
   <path class="monochrome-0 multicolor-0:white SFSymbolsPreviewFFFFFF" d="M43.7988 6.64062C46.7773 6.64062 48.7305 4.54102 48.7305 1.41602L48.7305-4.39453L50.8301-2.29492C52.832-0.292969 55.5176-0.244141 57.2266-2.39258C58.6914-4.3457 58.5449-6.88477 56.2012-8.44727L48.7305-13.3301L48.7305-17.4805L47.6562-28.418L56.7383-22.0215L60.2539-19.9707L60.791-11.1328C60.9863-8.30078 63.1348-6.93359 65.5273-7.27539C68.2617-7.61719 69.5312-9.96094 68.8477-12.6465L68.0664-15.4785L73.0957-12.5977C75.7812-11.0352 78.6133-11.7188 80.0293-14.3066C81.4453-16.8457 80.6641-19.6777 78.0273-21.1914L73.0469-24.1211L75.8789-24.8535C78.5156-25.5371 79.9805-27.8809 78.9062-30.4688C77.9785-32.666 75.7324-33.7891 73.1934-32.5684L65.2344-28.6133L61.6699-30.6641L51.6113-35.2539L61.6699-39.8438L65.2344-41.8945L73.1934-37.8906C75.7324-36.6211 77.9785-37.8418 78.9551-40.0879C80.0293-42.5781 78.5645-44.9219 75.8789-45.6543L73.0469-46.3867L78.0273-49.3164C80.7129-50.8789 81.4941-53.6133 80.0781-56.1523C78.6133-58.6914 75.7324-59.4238 73.0957-57.9102L68.0664-55.0293L68.8477-57.8125C69.5801-60.5469 68.2617-62.9395 65.5273-63.2324C63.1836-63.5254 60.9863-62.1582 60.791-59.375L60.2539-50.4395L56.7383-48.3887L47.6562-41.9922L48.7305-53.0273L48.7305-57.1777L56.2012-62.0605C58.5449-63.623 58.6426-66.1621 57.2266-68.1152C55.5664-70.2637 52.832-70.2148 50.8301-68.2129L48.7305-66.1133L48.7305-71.9238C48.7305-75.0488 46.7773-77.1484 43.7988-77.1484C40.8691-77.1484 38.8672-75 38.8672-71.9238L38.8672-66.1133L36.7676-68.2129C34.7656-70.2148 32.0801-70.2637 30.3711-68.1152C28.9062-66.1621 29.0527-63.623 31.3965-62.0605L38.8672-57.1777L38.8672-53.0273L39.9414-41.9434L30.8594-48.3887L27.3438-50.4883L26.8066-59.375C26.6113-62.1582 24.4141-63.5254 22.0703-63.2324C19.3359-62.9395 18.0664-60.498 18.75-57.8613L19.5312-55.0293L14.502-57.9102C11.8652-59.4238 8.98438-58.6914 7.51953-56.1523C6.10352-53.6133 6.88477-50.8301 9.52148-49.3164L14.5508-46.3867L11.7188-45.6543C9.0332-44.9219 7.61719-42.5293 8.69141-40.0391C9.66797-37.8418 11.8652-36.6211 14.4043-37.8906L22.3145-41.8945L25.9277-39.8438L35.9863-35.2539L25.9277-30.6641L22.3633-28.6133L14.4043-32.6172C11.8652-33.8867 9.61914-32.666 8.64258-30.4199C7.56836-27.9297 9.0332-25.5859 11.7188-24.8535L14.5508-24.1211L9.57031-21.1914C6.93359-19.6777 6.05469-16.8457 7.51953-14.3066C8.98438-11.7188 11.8164-11.0352 14.502-12.5977L19.5312-15.4785L18.75-12.6953C18.0176-9.96094 19.3359-7.56836 22.0703-7.27539C24.4629-6.98242 26.6113-8.34961 26.8066-11.1328L27.3438-20.0684L30.8594-22.1191L39.9414-28.5156L38.8672-17.4805L38.8672-13.3301L31.3965-8.44727C29.0527-6.88477 28.9551-4.3457 30.3711-2.39258C32.0312-0.244141 34.7656-0.292969 36.7676-2.29492L38.8672-4.39453L38.8672 1.41602C38.8672 4.49219 40.8691 6.64062 43.7988 6.64062Z"/>
  </g>
  <g id="Regular-S" transform="matrix(1 0 0 1 1408.78 696)">
   <path class="monochrome-0 multicolor-0:white SFSymbolsPreviewFFFFFF" d="M41.0645 3.75977C43.0176 3.75977 44.1406 2.44141 44.1406 0.537109L44.1406-6.88477L50-3.61328C51.6113-2.68555 53.2715-2.83203 54.1992-4.44336C54.9316-5.81055 54.4922-7.4707 52.832-8.44727L44.1406-13.3301L44.1406-17.5293L43.2129-31.4941L54.9316-23.7305L58.5449-21.6309L58.4473-11.6699C58.3984-9.76562 59.6191-8.44727 61.1816-8.44727C63.0859-8.44727 64.0137-9.81445 64.0137-11.6699L64.0625-18.5059L70.6055-14.6973C72.2168-13.7207 73.877-14.1113 74.8047-15.7227C75.7324-17.3828 75.2441-19.0918 73.6328-20.0195L67.1387-23.7305L72.998-27.1973C74.5605-28.125 75.2441-29.6387 74.3652-31.2012C73.5352-32.6172 71.7773-32.959 70.166-32.0312L61.6211-26.9531L57.959-29.0527L45.3613-35.2539L57.959-41.4551L61.5723-43.5547L70.166-38.4766C71.7773-37.5488 73.584-37.8906 74.3652-39.2578C75.2441-40.8691 74.5605-42.3828 72.998-43.3105L67.1387-46.7773L73.6328-50.4883C75.293-51.4648 75.7812-53.0762 74.8047-54.7852C73.9258-56.3477 72.2168-56.7871 70.6055-55.8105L64.0625-52.0996L64.0137-58.8867C64.0137-60.6934 63.0859-62.0605 61.2305-62.0605C59.6191-62.0605 58.3984-60.7422 58.4473-58.8867L58.5449-48.9258L54.9316-46.7773L43.2129-39.0137L44.1406-53.0273L44.1406-57.1777L52.832-62.0605C54.4922-63.0371 54.9316-64.6973 54.1992-66.0645C53.2715-67.6758 51.6113-67.8223 50-66.9434L44.1406-63.623L44.1406-71.0449C44.1406-72.9492 43.0176-74.2676 41.0645-74.2676C39.2578-74.2676 38.0371-72.9492 38.0371-71.0449L38.0371-63.623L32.0801-66.9434C30.4688-67.8223 28.9062-67.6758 27.9297-66.0645C27.1484-64.6973 27.6855-63.0371 29.2969-62.1094L38.0371-57.1777L38.0371-53.0273L38.916-39.0137L27.2461-46.7773L23.584-48.9258L23.6816-58.8867C23.7305-60.7422 22.5098-62.0605 20.9473-62.0605C19.0918-62.0605 18.1152-60.6934 18.1152-58.8867L18.0664-52.0996L11.5723-55.8105C10.0098-56.7383 8.20312-56.3477 7.32422-54.7852C6.34766-53.0762 6.88477-51.416 8.49609-50.4883L14.9902-46.7773L9.13086-43.3105C7.56836-42.3828 6.88477-40.9668 7.76367-39.2578C8.54492-37.8906 10.3027-37.5488 11.9629-38.4766L20.5566-43.5059L24.1699-41.4551L36.7676-35.2539L24.1699-29.0527L20.5566-26.9531L11.9629-32.0312C10.3516-32.959 8.59375-32.6172 7.86133-31.25C6.93359-29.541 7.56836-28.125 9.13086-27.1973L14.9902-23.7305L8.49609-20.0195C6.88477-19.0918 6.39648-17.334 7.32422-15.7227C8.25195-14.1113 10.0098-13.7695 11.5723-14.6973L18.0664-18.4082L18.1152-11.6699C18.1152-9.81445 19.0918-8.44727 20.9473-8.44727C22.5098-8.44727 23.7305-9.76562 23.6816-11.6699L23.6328-21.6309L27.2461-23.6816L38.916-31.4941L38.0371-17.5293L38.0371-13.3301L29.2969-8.44727C27.6855-7.4707 27.1484-5.81055 27.9297-4.44336C28.9062-2.83203 30.4688-2.68555 32.0801-3.61328L38.0371-6.88477L38.0371 0.537109C38.0371 2.44141 39.2578 3.75977 41.0645 3.75977Z"/>
  </g>
  <g id="Ultralight-S" transform="matrix(1 0 0 1 520.531 696)">
   <path class="monochrome-0 multicolor-0:white SFSymbolsPreviewFFFFFF" d="M39.1572 1.89796C39.7481 1.89796 40.0992 1.4878 40.0992 0.764158L40.0992-11.3803L49.8184-5.70213C50.4307-5.36472 50.9556-5.4658 51.293-5.98729C51.5713-6.44628 51.4043-6.9712 50.7886-7.26661L40.0992-13.4209L40.0992-21.3437L39.9434-33.7646L50.7993-27.4541L57.6367-23.5835L57.6299-11.2612C57.6265-10.5376 58.0298-10.1274 58.5479-10.1274C59.0899-10.1274 59.4273-10.541 59.4273-11.2612L59.4307-22.5019L69.9243-16.4228C70.582-16.082 71.107-16.2002 71.3535-16.6763C71.6001-17.2012 71.4297-17.6841 70.8628-18.0215L60.3272-24.0483L70.1826-29.831C70.7915-30.1684 70.9302-30.6377 70.6416-31.1104C70.2657-31.6182 69.8701-31.6875 69.3032-31.3955L58.4424-25.1821L51.6924-29.0527L40.3208-35.2539L51.7378-41.4097L58.5752-45.4165L69.2124-39.2031C69.7793-38.9111 70.3599-39.0259 70.687-39.4849C70.9302-39.9609 70.7461-40.4302 70.1372-40.813L60.3726-46.4595L70.9082-52.4863C71.524-52.8271 71.649-53.3486 71.399-53.9224C71.1104-54.3496 70.5366-54.4712 69.9697-54.085L59.4307-47.9673L59.3819-59.3862C59.3819-60.103 59.0445-60.4258 58.4605-60.3804C57.939-60.3804 57.6265-60.061 57.6299-59.3862L57.5913-46.9278L50.7993-43.0083L39.9434-36.6978L40.0992-49.2583L40.0992-57.1777L50.7886-63.332C51.4043-63.6274 51.5713-64.1523 51.293-64.6113C50.9556-65.1328 50.4307-65.2339 49.8184-64.8999L40.0992-59.2183L40.0992-71.3628C40.0992-72.0864 39.7481-72.4966 39.1572-72.4966C38.6221-72.4966 38.2642-72.0864 38.2642-71.3628L38.2642-59.1729L28.3565-64.8999C27.7896-65.2339 27.3623-65.1328 27.0215-64.6113C26.7852-64.1523 26.959-63.6728 27.4805-63.3808L38.2642-57.1323L38.2642-49.2583L38.4619-36.6978L27.5186-43.0083L20.7232-46.9278L20.73-59.3862C20.7334-60.061 20.4209-60.3804 19.8574-60.3804C19.228-60.3804 18.978-60.0576 18.978-59.3862L18.9292-47.9673L8.43899-54.085C7.78469-54.4224 7.24952-54.3496 6.96094-53.9224C6.71093-53.3486 6.83936-52.8237 7.45167-52.4863L17.9873-46.4595L8.22266-40.813C7.56836-40.4302 7.42968-40.0132 7.67285-39.4395C8-38.9805 8.57716-38.9111 9.19289-39.2031L19.7847-45.4131L26.6221-41.4097L38.0391-35.2539L26.6675-29.0527L19.8301-25.1367L9.05666-31.3955C8.44435-31.6875 8.04883-31.6182 7.7251-31.1592C7.47851-30.54 7.56836-30.1684 8.17725-29.831L18.0327-24.0483L7.49708-18.0215C6.88477-17.6387 6.66894-17.1523 6.96094-16.7217C7.29835-16.2002 7.8301-16.0854 8.43899-16.4228L18.9292-22.4951L18.9326-11.2612C18.9326-10.541 19.228-10.1274 19.812-10.1274C20.3301-10.1274 20.7334-10.5376 20.73-11.2612L20.7266-23.5835L27.5186-27.4507L38.4619-33.7646L38.2642-21.3437L38.2642-13.4663L27.4805-7.2212C26.959-6.92579 26.7852-6.44628 27.0215-5.98729C27.3623-5.4658 27.7896-5.36472 28.3565-5.70213L38.2642-11.4257L38.2642 0.764158C38.2642 1.4878 38.6221 1.89796 39.1572 1.89796Z"/>
  </g>
 </g>
</svg>
